<?xml version="1.0" encoding="UTF-8" standalone="no"?>
<!-- Created with Inkscape (http://www.inkscape.org/) -->

<svg
   xmlns:dc="http://purl.org/dc/elements/1.1/"
   xmlns:cc="http://creativecommons.org/ns#"
   xmlns:rdf="http://www.w3.org/1999/02/22-rdf-syntax-ns#"
   xmlns:svg="http://www.w3.org/2000/svg"
   xmlns="http://www.w3.org/2000/svg"
   xmlns:xlink="http://www.w3.org/1999/xlink"
   xmlns:sodipodi="http://sodipodi.sourceforge.net/DTD/sodipodi-0.dtd"
   xmlns:inkscape="http://www.inkscape.org/namespaces/inkscape"
   width="20"
   height="20.000006"
   id="svg1306"
   sodipodi:version="0.32"
   inkscape:version="0.47 r22583"
   sodipodi:docname="gwibber.svg"
   inkscape:output_extension="org.inkscape.output.svg.inkscape"
   sodipodi:modified="true"
   version="1.1">
  <defs
     id="defs1308">
    <inkscape:perspective
       sodipodi:type="inkscape:persp3d"
       inkscape:vp_x="0 : 24 : 1"
       inkscape:vp_y="0 : 1000 : 0"
       inkscape:vp_z="48 : 24 : 1"
       inkscape:persp3d-origin="24 : 16 : 1"
       id="perspective195" />
    <linearGradient
       inkscape:collect="always"
       id="linearGradient2189">
      <stop
         style="stop-color:#000000;stop-opacity:1;"
         offset="0"
         id="stop2191" />
      <stop
         style="stop-color:#000000;stop-opacity:0;"
         offset="1"
         id="stop2193" />
    </linearGradient>
    <linearGradient
       inkscape:collect="always"
       id="linearGradient2097">
      <stop
         style="stop-color:#ffffff;stop-opacity:1.0000000"
         offset="0"
         id="stop2099" />
      <stop
         style="stop-color:#e7e7e3;stop-opacity:1.0000000"
         offset="1"
         id="stop2101" />
    </linearGradient>
    <radialGradient
       inkscape:collect="always"
       xlink:href="#linearGradient2097"
       id="radialGradient2103"
       cx="16.981855"
       cy="15.445013"
       fx="16.981855"
       fy="15.445013"
       r="20.978409"
       gradientTransform="matrix(0.70096752,0.00196976,-0.00139892,0.4978251,8.9125828,13.425649)"
       gradientUnits="userSpaceOnUse" />
    <radialGradient
       inkscape:collect="always"
       xlink:href="#linearGradient2189"
       id="radialGradient2195"
       cx="25.304846"
       cy="44.051216"
       fx="25.304846"
       fy="44.051216"
       r="21.535715"
       gradientTransform="matrix(0.928681,0,0,0.102029,1.804722,37.76401)"
       gradientUnits="userSpaceOnUse" />
    <linearGradient
       id="linearGradient2865"
       inkscape:collect="always">
      <stop
         id="stop2867"
         offset="0"
         style="stop-color:#000000;stop-opacity:1;" />
      <stop
         id="stop2869"
         offset="1"
         style="stop-color:#000000;stop-opacity:0;" />
    </linearGradient>
    <linearGradient
       id="linearGradient6377">
      <stop
         id="stop6379"
         offset="0"
         style="stop-color:#fff27e;stop-opacity:1;" />
      <stop
         id="stop6381"
         offset="1"
         style="stop-color:#edd400;stop-opacity:1;" />
    </linearGradient>
    <linearGradient
       id="linearGradient2966">
      <stop
         style="stop-color:#ffd1d1;stop-opacity:1;"
         offset="0"
         id="stop2968" />
      <stop
         id="stop3006"
         offset="0.5"
         style="stop-color:#ff1d1d;stop-opacity:1;" />
      <stop
         style="stop-color:#6f0000;stop-opacity:1;"
         offset="1"
         id="stop2970" />
    </linearGradient>
    <linearGradient
       id="linearGradient2974">
      <stop
         style="stop-color:#c1c1c1;stop-opacity:1;"
         offset="0"
         id="stop2976" />
      <stop
         style="stop-color:#acacac;stop-opacity:1;"
         offset="1"
         id="stop2978" />
    </linearGradient>
    <linearGradient
       inkscape:collect="always"
       id="linearGradient2984">
      <stop
         style="stop-color:#e7e2b8;stop-opacity:1;"
         offset="0"
         id="stop2986" />
      <stop
         style="stop-color:#e7e2b8;stop-opacity:0;"
         offset="1"
         id="stop2988" />
    </linearGradient>
    <linearGradient
       id="linearGradient2994">
      <stop
         style="stop-color:#000000;stop-opacity:1;"
         offset="0"
         id="stop2996" />
      <stop
         style="stop-color:#c9c9c9;stop-opacity:1;"
         offset="1"
         id="stop2998" />
    </linearGradient>
    <linearGradient
       id="linearGradient5553">
      <stop
         id="stop5555"
         offset="0"
         style="stop-color:#c4a000;stop-opacity:1;" />
      <stop
         id="stop5557"
         offset="1"
         style="stop-color:#f3c600;stop-opacity:1;" />
    </linearGradient>
    <radialGradient
       inkscape:collect="always"
       xlink:href="#linearGradient2865"
       id="radialGradient3102"
       gradientUnits="userSpaceOnUse"
       gradientTransform="matrix(1,0,0,0.348243,0,26.35543)"
       cx="23.5625"
       cy="40.4375"
       fx="23.5625"
       fy="40.4375"
       r="19.5625" />
    <radialGradient
       inkscape:collect="always"
       xlink:href="#linearGradient4750"
       id="radialGradient1558"
       gradientUnits="userSpaceOnUse"
       gradientTransform="scale(1.036822,0.964486)"
       cx="18.63378"
       cy="17.486208"
       fx="18.934305"
       fy="17.810213"
       r="40.692665" />
    <radialGradient
       inkscape:collect="always"
       xlink:href="#linearGradient4750"
       id="radialGradient1554"
       gradientUnits="userSpaceOnUse"
       gradientTransform="scale(1.036822,0.964486)"
       cx="18.63378"
       cy="17.486208"
       fx="18.934305"
       fy="17.810213"
       r="40.692665" />
    <radialGradient
       inkscape:collect="always"
       xlink:href="#linearGradient4750"
       id="radialGradient1552"
       gradientUnits="userSpaceOnUse"
       gradientTransform="scale(1.036822,0.964486)"
       cx="18.63378"
       cy="17.486208"
       fx="18.934305"
       fy="17.810213"
       r="40.692665" />
    <radialGradient
       inkscape:collect="always"
       xlink:href="#linearGradient4750"
       id="radialGradient1550"
       gradientUnits="userSpaceOnUse"
       gradientTransform="scale(1.036822,0.964486)"
       cx="18.63378"
       cy="17.486208"
       fx="18.934305"
       fy="17.810213"
       r="40.692665" />
    <radialGradient
       inkscape:collect="always"
       xlink:href="#linearGradient4750"
       id="radialGradient1546"
       gradientUnits="userSpaceOnUse"
       gradientTransform="scale(1.036822,0.964486)"
       cx="18.63378"
       cy="17.486208"
       fx="18.934305"
       fy="17.810213"
       r="40.692665" />
    <radialGradient
       inkscape:collect="always"
       xlink:href="#linearGradient4750"
       id="radialGradient1544"
       gradientUnits="userSpaceOnUse"
       gradientTransform="scale(1.036822,0.964486)"
       cx="18.63378"
       cy="17.486208"
       fx="18.934305"
       fy="17.810213"
       r="40.692665" />
    <radialGradient
       inkscape:collect="always"
       xlink:href="#linearGradient4750"
       id="radialGradient1542"
       gradientUnits="userSpaceOnUse"
       gradientTransform="scale(1.036822,0.964486)"
       cx="18.63378"
       cy="17.486208"
       fx="18.934305"
       fy="17.810213"
       r="40.692665" />
    <radialGradient
       inkscape:collect="always"
       xlink:href="#linearGradient4750"
       id="radialGradient1540"
       gradientUnits="userSpaceOnUse"
       gradientTransform="scale(1.036822,0.964486)"
       cx="18.63378"
       cy="17.486208"
       fx="18.934305"
       fy="17.810213"
       r="40.692665" />
    <radialGradient
       inkscape:collect="always"
       xlink:href="#linearGradient4750"
       id="radialGradient1538"
       gradientUnits="userSpaceOnUse"
       gradientTransform="scale(1.036822,0.964486)"
       cx="18.63378"
       cy="17.486208"
       fx="18.934305"
       fy="17.810213"
       r="40.692665" />
    <radialGradient
       inkscape:collect="always"
       xlink:href="#linearGradient4750"
       id="radialGradient1536"
       gradientUnits="userSpaceOnUse"
       gradientTransform="scale(1.036822,0.964486)"
       cx="18.63378"
       cy="17.486208"
       fx="18.934305"
       fy="17.810213"
       r="40.692665" />
    <radialGradient
       inkscape:collect="always"
       xlink:href="#linearGradient4750"
       id="radialGradient1534"
       gradientUnits="userSpaceOnUse"
       gradientTransform="scale(1.036822,0.964486)"
       cx="18.63378"
       cy="17.486208"
       fx="18.934305"
       fy="17.810213"
       r="40.692665" />
    <radialGradient
       inkscape:collect="always"
       xlink:href="#linearGradient4750"
       id="radialGradient1532"
       gradientUnits="userSpaceOnUse"
       gradientTransform="scale(1.036822,0.964486)"
       cx="18.63378"
       cy="17.486208"
       fx="18.934305"
       fy="17.810213"
       r="40.692665" />
    <radialGradient
       inkscape:collect="always"
       xlink:href="#linearGradient4750"
       id="radialGradient1530"
       gradientUnits="userSpaceOnUse"
       gradientTransform="scale(1.036822,0.964486)"
       cx="18.63378"
       cy="17.486208"
       fx="18.934305"
       fy="17.810213"
       r="40.692665" />
    <radialGradient
       inkscape:collect="always"
       xlink:href="#linearGradient4750"
       id="radialGradient1528"
       gradientUnits="userSpaceOnUse"
       gradientTransform="scale(1.036822,0.964486)"
       cx="18.63378"
       cy="17.486208"
       fx="18.934305"
       fy="17.810213"
       r="40.692665" />
    <radialGradient
       inkscape:collect="always"
       xlink:href="#linearGradient4750"
       id="radialGradient1526"
       gradientUnits="userSpaceOnUse"
       gradientTransform="scale(1.036822,0.964486)"
       cx="18.63378"
       cy="17.486208"
       fx="18.934305"
       fy="17.810213"
       r="40.692665" />
    <radialGradient
       inkscape:collect="always"
       xlink:href="#linearGradient4750"
       id="radialGradient1524"
       gradientUnits="userSpaceOnUse"
       gradientTransform="scale(1.036822,0.964486)"
       cx="18.63378"
       cy="17.486208"
       fx="18.934305"
       fy="17.810213"
       r="40.692665" />
    <radialGradient
       inkscape:collect="always"
       xlink:href="#linearGradient4750"
       id="radialGradient1522"
       gradientUnits="userSpaceOnUse"
       gradientTransform="scale(1.036822,0.964486)"
       cx="18.63378"
       cy="17.486208"
       fx="18.934305"
       fy="17.810213"
       r="40.692665" />
    <radialGradient
       inkscape:collect="always"
       xlink:href="#linearGradient4750"
       id="radialGradient1518"
       gradientUnits="userSpaceOnUse"
       gradientTransform="scale(1.036822,0.964486)"
       cx="18.63378"
       cy="17.486208"
       fx="18.934305"
       fy="17.810213"
       r="40.692665" />
    <radialGradient
       inkscape:collect="always"
       xlink:href="#linearGradient4750"
       id="radialGradient1516"
       gradientUnits="userSpaceOnUse"
       gradientTransform="scale(1.036822,0.964486)"
       cx="18.63378"
       cy="17.486208"
       fx="18.934305"
       fy="17.810213"
       r="40.692665" />
    <radialGradient
       inkscape:collect="always"
       xlink:href="#linearGradient4750"
       id="radialGradient1514"
       gradientUnits="userSpaceOnUse"
       gradientTransform="scale(1.036822,0.964486)"
       cx="18.63378"
       cy="17.486208"
       fx="18.934305"
       fy="17.810213"
       r="40.692665" />
    <radialGradient
       inkscape:collect="always"
       xlink:href="#linearGradient4750"
       id="radialGradient1510"
       gradientUnits="userSpaceOnUse"
       gradientTransform="scale(1.036822,0.964486)"
       cx="18.63378"
       cy="17.486208"
       fx="18.934305"
       fy="17.810213"
       r="40.692665" />
    <radialGradient
       inkscape:collect="always"
       xlink:href="#linearGradient4750"
       id="radialGradient1508"
       gradientUnits="userSpaceOnUse"
       gradientTransform="scale(1.036822,0.964486)"
       cx="18.63378"
       cy="17.486208"
       fx="18.934305"
       fy="17.810213"
       r="40.692665" />
    <radialGradient
       inkscape:collect="always"
       xlink:href="#linearGradient4750"
       id="radialGradient1506"
       gradientUnits="userSpaceOnUse"
       gradientTransform="scale(1.036822,0.964486)"
       cx="18.63378"
       cy="17.486208"
       fx="18.934305"
       fy="17.810213"
       r="40.692665" />
    <radialGradient
       inkscape:collect="always"
       xlink:href="#linearGradient4750"
       id="radialGradient1502"
       gradientUnits="userSpaceOnUse"
       gradientTransform="scale(1.036822,0.964486)"
       cx="18.63378"
       cy="17.486208"
       fx="18.934305"
       fy="17.810213"
       r="40.692665" />
    <radialGradient
       inkscape:collect="always"
       xlink:href="#linearGradient4750"
       id="radialGradient1500"
       gradientUnits="userSpaceOnUse"
       gradientTransform="scale(1.036822,0.964486)"
       cx="18.63378"
       cy="17.486208"
       fx="18.934305"
       fy="17.810213"
       r="40.692665" />
    <radialGradient
       inkscape:collect="always"
       xlink:href="#linearGradient4750"
       id="radialGradient1498"
       gradientUnits="userSpaceOnUse"
       gradientTransform="scale(1.036822,0.964486)"
       cx="18.63378"
       cy="17.486208"
       fx="18.934305"
       fy="17.810213"
       r="40.692665" />
    <radialGradient
       inkscape:collect="always"
       xlink:href="#linearGradient4750"
       id="radialGradient1494"
       gradientUnits="userSpaceOnUse"
       gradientTransform="scale(1.036822,0.964486)"
       cx="18.63378"
       cy="17.486208"
       fx="18.934305"
       fy="17.810213"
       r="40.692665" />
    <radialGradient
       inkscape:collect="always"
       xlink:href="#linearGradient4750"
       id="radialGradient1492"
       gradientUnits="userSpaceOnUse"
       gradientTransform="scale(1.036822,0.964486)"
       cx="18.63378"
       cy="17.486208"
       fx="18.934305"
       fy="17.810213"
       r="40.692665" />
    <radialGradient
       inkscape:collect="always"
       xlink:href="#linearGradient4750"
       id="radialGradient1490"
       gradientUnits="userSpaceOnUse"
       gradientTransform="scale(1.036822,0.964486)"
       cx="18.63378"
       cy="17.486208"
       fx="18.934305"
       fy="17.810213"
       r="40.692665" />
    <radialGradient
       inkscape:collect="always"
       xlink:href="#linearGradient4750"
       id="radialGradient1486"
       gradientUnits="userSpaceOnUse"
       gradientTransform="scale(1.036822,0.964486)"
       cx="18.63378"
       cy="17.486208"
       fx="18.934305"
       fy="17.810213"
       r="40.692665" />
    <radialGradient
       inkscape:collect="always"
       xlink:href="#linearGradient4750"
       id="radialGradient1484"
       gradientUnits="userSpaceOnUse"
       gradientTransform="scale(1.036822,0.964486)"
       cx="18.63378"
       cy="17.486208"
       fx="18.934305"
       fy="17.810213"
       r="40.692665" />
    <radialGradient
       inkscape:collect="always"
       xlink:href="#linearGradient4750"
       id="radialGradient1482"
       gradientUnits="userSpaceOnUse"
       gradientTransform="scale(1.036822,0.964486)"
       cx="18.63378"
       cy="17.486208"
       fx="18.934305"
       fy="17.810213"
       r="40.692665" />
    <radialGradient
       inkscape:collect="always"
       xlink:href="#linearGradient4750"
       id="radialGradient1478"
       gradientUnits="userSpaceOnUse"
       gradientTransform="scale(1.036822,0.964486)"
       cx="18.63378"
       cy="17.486208"
       fx="18.934305"
       fy="17.810213"
       r="40.692665" />
    <radialGradient
       inkscape:collect="always"
       xlink:href="#linearGradient4750"
       id="radialGradient1476"
       gradientUnits="userSpaceOnUse"
       gradientTransform="scale(1.036822,0.964486)"
       cx="18.63378"
       cy="17.486208"
       fx="18.934305"
       fy="17.810213"
       r="40.692665" />
    <radialGradient
       inkscape:collect="always"
       xlink:href="#linearGradient4750"
       id="radialGradient1474"
       gradientUnits="userSpaceOnUse"
       gradientTransform="scale(1.036822,0.964486)"
       cx="18.63378"
       cy="17.486208"
       fx="18.934305"
       fy="17.810213"
       r="40.692665" />
    <radialGradient
       inkscape:collect="always"
       xlink:href="#linearGradient4750"
       id="radialGradient1470"
       gradientUnits="userSpaceOnUse"
       gradientTransform="scale(1.036822,0.964486)"
       cx="18.63378"
       cy="17.486208"
       fx="18.934305"
       fy="17.810213"
       r="40.692665" />
    <radialGradient
       inkscape:collect="always"
       xlink:href="#linearGradient4750"
       id="radialGradient1468"
       gradientUnits="userSpaceOnUse"
       gradientTransform="scale(1.036822,0.964486)"
       cx="18.63378"
       cy="17.486208"
       fx="18.934305"
       fy="17.810213"
       r="40.692665" />
    <radialGradient
       inkscape:collect="always"
       xlink:href="#linearGradient4750"
       id="radialGradient1466"
       gradientUnits="userSpaceOnUse"
       gradientTransform="scale(1.036822,0.964486)"
       cx="18.63378"
       cy="17.486208"
       fx="18.934305"
       fy="17.810213"
       r="40.692665" />
    <radialGradient
       inkscape:collect="always"
       xlink:href="#linearGradient4750"
       id="radialGradient1462"
       gradientUnits="userSpaceOnUse"
       gradientTransform="scale(1.036822,0.964486)"
       cx="18.63378"
       cy="17.486208"
       fx="18.934305"
       fy="17.810213"
       r="40.692665" />
    <radialGradient
       inkscape:collect="always"
       xlink:href="#linearGradient4750"
       id="radialGradient1460"
       gradientUnits="userSpaceOnUse"
       gradientTransform="scale(1.036822,0.964486)"
       cx="18.63378"
       cy="17.486208"
       fx="18.934305"
       fy="17.810213"
       r="40.692665" />
    <radialGradient
       gradientUnits="userSpaceOnUse"
       r="40.692665"
       fy="17.810213"
       fx="18.934305"
       cy="17.486208"
       cx="18.63378"
       gradientTransform="scale(1.036822,0.964486)"
       id="radialGradient4756"
       xlink:href="#linearGradient4750"
       inkscape:collect="always" />
    <radialGradient
       gradientUnits="userSpaceOnUse"
       r="32.664848"
       fy="10.476453"
       fx="11.826907"
       cy="10.476453"
       cx="11.826907"
       gradientTransform="scale(1.179536,0.847791)"
       id="radialGradient4356"
       xlink:href="#linearGradient4350"
       inkscape:collect="always" />
    <radialGradient
       gradientUnits="userSpaceOnUse"
       r="43.526714"
       fy="12.142302"
       fx="15.601279"
       cy="12.142302"
       cx="15.601279"
       gradientTransform="scale(0.999989,1.000011)"
       id="radialGradient4132"
       xlink:href="#linearGradient4126"
       inkscape:collect="always" />
    <radialGradient
       gradientUnits="userSpaceOnUse"
       r="12.289036"
       fy="63.965389"
       fx="15.115514"
       cy="63.965389"
       cx="15.115514"
       gradientTransform="scale(1.64399,0.608276)"
       id="radialGradient4120"
       xlink:href="#linearGradient4114"
       inkscape:collect="always" />
    <radialGradient
       gradientUnits="userSpaceOnUse"
       r="29.993349"
       fy="15.716079"
       fx="18.247644"
       cy="15.716079"
       cx="18.247644"
       gradientTransform="scale(0.999989,1.000011)"
       id="radialGradient3968"
       xlink:href="#linearGradient3962"
       inkscape:collect="always" />
    <linearGradient
       id="linearGradient3962">
      <stop
         id="stop3964"
         offset="0.0000000"
         style="stop-color:#d3e9ff;stop-opacity:1.0000000;" />
      <stop
         id="stop4134"
         offset="0.15517241"
         style="stop-color:#d3e9ff;stop-opacity:1.0000000;" />
      <stop
         id="stop4346"
         offset="0.75000000"
         style="stop-color:#4074ae;stop-opacity:1.0000000;" />
      <stop
         id="stop3966"
         offset="1.0000000"
         style="stop-color:#36486c;stop-opacity:1.0000000;" />
    </linearGradient>
    <linearGradient
       id="linearGradient4114"
       inkscape:collect="always">
      <stop
         id="stop4116"
         offset="0"
         style="stop-color:#000000;stop-opacity:1;" />
      <stop
         id="stop4118"
         offset="1"
         style="stop-color:#000000;stop-opacity:0;" />
    </linearGradient>
    <linearGradient
       id="linearGradient4126">
      <stop
         id="stop4128"
         offset="0.0000000"
         style="stop-color:#ffffff;stop-opacity:1.0000000;" />
      <stop
         id="stop4130"
         offset="1.0000000"
         style="stop-color:#ffffff;stop-opacity:0.16494845;" />
    </linearGradient>
    <linearGradient
       id="linearGradient4350"
       inkscape:collect="always">
      <stop
         id="stop4352"
         offset="0"
         style="stop-color:#ffffff;stop-opacity:1;" />
      <stop
         id="stop4354"
         offset="1"
         style="stop-color:#ffffff;stop-opacity:0;" />
    </linearGradient>
    <linearGradient
       id="linearGradient4750">
      <stop
         id="stop4752"
         offset="0"
         style="stop-color:#ffffff;stop-opacity:1;" />
      <stop
         id="stop4758"
         offset="0.37931034"
         style="stop-color:#fefefe;stop-opacity:1.0000000;" />
      <stop
         id="stop4754"
         offset="1.0000000"
         style="stop-color:#1d1d1d;stop-opacity:1.0000000;" />
    </linearGradient>
    <linearGradient
       inkscape:collect="always"
       xlink:href="#linearGradient2966"
       id="linearGradient3440"
       gradientUnits="userSpaceOnUse"
       gradientTransform="translate(-5.669292,0)"
       x1="48.90625"
       y1="17.376184"
       x2="50.988335"
       y2="22.250591" />
    <linearGradient
       inkscape:collect="always"
       xlink:href="#linearGradient2974"
       id="linearGradient3442"
       gradientUnits="userSpaceOnUse"
       gradientTransform="translate(-5.669292,0)"
       x1="46"
       y1="19.8125"
       x2="47.6875"
       y2="22.625" />
    <radialGradient
       inkscape:collect="always"
       xlink:href="#linearGradient2984"
       id="radialGradient3444"
       gradientUnits="userSpaceOnUse"
       gradientTransform="matrix(2.923565,0,0,2.029717,-61.55532,-27.88417)"
       cx="29.053354"
       cy="27.640751"
       fx="29.053354"
       fy="27.640751"
       r="3.2408545" />
    <linearGradient
       inkscape:collect="always"
       xlink:href="#linearGradient2994"
       id="linearGradient3446"
       gradientUnits="userSpaceOnUse"
       gradientTransform="translate(-5.825542,0.125)"
       x1="25.71875"
       y1="31.046875"
       x2="25.514589"
       y2="30.703125" />
  </defs>
  <sodipodi:namedview
     id="base"
     pagecolor="#ffffff"
     bordercolor="#666666"
     borderopacity="1.0"
     inkscape:pageopacity="0.0"
     inkscape:pageshadow="2"
     inkscape:zoom="1"
     inkscape:cx="-418.30844"
     inkscape:cy="98.08508"
     inkscape:current-layer="layer1"
     showgrid="false"
     inkscape:grid-bbox="true"
     inkscape:document-units="px"
     fill="#3465a4"
     stroke="#888a85"
     inkscape:window-width="1018"
     inkscape:window-height="524"
     inkscape:window-x="0"
     inkscape:window-y="25"
     showguides="true"
     inkscape:guide-bbox="true"
     inkscape:window-maximized="0" />
  <metadata
     id="metadata1311">
    <rdf:RDF>
      <cc:Work
         rdf:about="">
        <dc:format>image/svg+xml</dc:format>
        <dc:type
           rdf:resource="http://purl.org/dc/dcmitype/StillImage" />
        <dc:title>Konversation application icon</dc:title>
        <dc:date>March 2006</dc:date>
        <dc:creator>
          <cc:Agent>
            <dc:title>Andreas Nilsson</dc:title>
          </cc:Agent>
        </dc:creator>
        <dc:source>http://tango-project.org</dc:source>
        <dc:subject>
          <rdf:Bag>
            <rdf:li>konversation</rdf:li>
            <rdf:li>chat</rdf:li>
            <rdf:li>irc</rdf:li>
          </rdf:Bag>
        </dc:subject>
        <cc:license
           rdf:resource="http://creativecommons.org/licenses/GPL/2.0/" />
      </cc:Work>
      <cc:License
         rdf:about="http://creativecommons.org/licenses/GPL/2.0/">
        <cc:permits
           rdf:resource="http://web.resource.org/cc/Reproduction" />
        <cc:permits
           rdf:resource="http://web.resource.org/cc/Distribution" />
        <cc:requires
           rdf:resource="http://web.resource.org/cc/Notice" />
        <cc:permits
           rdf:resource="http://web.resource.org/cc/DerivativeWorks" />
        <cc:requires
           rdf:resource="http://web.resource.org/cc/ShareAlike" />
        <cc:requires
           rdf:resource="http://web.resource.org/cc/SourceCode" />
      </cc:License>
    </rdf:RDF>
  </metadata>
  <g
     id="layer1"
     inkscape:label="Layer 1"
     inkscape:groupmode="layer"
     transform="translate(-13.489012,-15.510991)">
    <path
       style="fill:url(#radialGradient2103);fill-opacity:1;stroke:#888a85;stroke-width:0.44490111;stroke-linecap:round;stroke-linejoin:round;stroke-miterlimit:4;stroke-opacity:1;stroke-dasharray:none;stroke-dashoffset:0"
       d="m 23.726802,15.733442 c -5.266626,0 -9.585384,3.54719 -9.539759,7.91102 0.06648,6.424921 8.178243,8.735746 11.750191,7.6638 2.210432,0.725038 2.755831,1.640757 5.99669,1.634525 -1.878036,-1.236097 -1.840275,-1.990017 -1.855511,-3.325833 1.920158,-1.446525 3.188148,-3.654375 3.188148,-5.972492 0,-4.364068 -4.273132,-7.91102 -9.539759,-7.91102 z"
       id="path2079"
       sodipodi:nodetypes="cscccsc" />
    <path
       style="fill:none;stroke:#ffffff;stroke-width:0.44499487;stroke-linecap:round;stroke-linejoin:miter;stroke-miterlimit:4;stroke-opacity:1;stroke-dasharray:none;stroke-dashoffset:0"
       d="m 23.724318,16.177749 c -5.019632,0 -9.135849,3.37464 -9.092364,7.526195 0.06336,6.112388 7.935725,8.169781 11.340156,7.149979 1.934405,0.726805 2.099333,1.012045 4.485324,1.475296 -0.817768,-0.955081 -0.863367,-1.78527 -0.869618,-2.889441 1.830107,-1.37616 3.228866,-3.530479 3.228867,-5.735834 0,-4.151782 -4.072731,-7.526195 -9.092365,-7.526195 z"
       id="path2095"
       sodipodi:nodetypes="cscccsc" />
    <path
       sodipodi:type="arc"
       style="opacity:0.2;fill:url(#radialGradient2195);fill-opacity:1;stroke:none"
       id="path1314"
       sodipodi:cx="24.535715"
       sodipodi:cy="42"
       sodipodi:rx="21.535715"
       sodipodi:ry="2.7142856"
       d="m 46.07143,42 c 0,1.499059 -9.641868,2.714286 -21.535715,2.714286 C 12.641868,44.714286 3,43.499059 3,42 c 0,-1.499059 9.641868,-2.714286 21.535715,-2.714286 11.893847,0 21.535715,1.215227 21.535715,2.714286 z"
       transform="matrix(0.43216969,0,0,0.60006247,12.192503,8.6796328)" />
    <g
       inkscape:label="Layer 1"
       id="g3329"
       transform="matrix(0.28190593,0,0,0.28190593,15.97362,16.561708)">
      <path
         transform="matrix(1,0,0,1.243244,0,-10.27241)"
         d="m 45.052803,38.908627 c 0,4.128399 -9.045214,7.475128 -20.203051,7.475128 -11.157836,0 -20.2030502,-3.346729 -20.2030502,-7.475128 0,-4.1284 9.0452142,-7.475129 20.2030502,-7.475129 11.157837,0 20.203051,3.346729 20.203051,7.475129 z"
         sodipodi:ry="7.4751287"
         sodipodi:rx="20.203051"
         sodipodi:cy="38.908627"
         sodipodi:cx="24.849752"
         id="path4112"
         style="fill:url(#radialGradient4120);fill-opacity:1;stroke:none"
         sodipodi:type="arc" />
      <path
         id="path3214"
         d="m 43.959853,23.485499 c 0,10.709718 -8.682103,19.391723 -19.390348,19.391723 -10.709226,0 -19.3908387,-8.682103 -19.3908387,-19.391723 0,-10.709227 8.6816127,-19.3903473 19.3908387,-19.3903473 10.708245,0 19.390348,8.6811203 19.390348,19.3903473 l 0,0 z"
         style="fill:url(#radialGradient3968);fill-opacity:1;fill-rule:nonzero;stroke:#39396c;stroke-miterlimit:4;stroke-opacity:1" />
      <path
         transform="matrix(0.835938,0,0,1,9.886868,0)"
         d="m 30.708637,15.271057 c 0,5.132605 -5.788937,9.293404 -12.929952,9.293404 -7.141016,0 -12.929953,-4.160799 -12.929953,-9.293404 0,-5.132605 5.788937,-9.2934035 12.929953,-9.2934035 7.141015,0 12.929952,4.1607985 12.929952,9.2934035 z"
         sodipodi:ry="9.2934036"
         sodipodi:rx="12.929953"
         sodipodi:cy="15.271057"
         sodipodi:cx="17.778685"
         id="path4348"
         style="opacity:0.42159382;fill:url(#radialGradient4356);fill-opacity:1;stroke:none"
         sodipodi:type="arc" />
      <g
         transform="matrix(0.982371,0,0,0.982371,0.121079,0.232914)"
         style="fill:#000000;fill-opacity:0.71345029;fill-rule:nonzero;stroke:none"
         id="g4136">
        <g
           id="g4138">
          <g
             id="g4142">
            <path
               id="path4144"
               d="m 44.0713,20.7144 c 0,0.2627 0,0 0,0 l -0.5449,0.6172 c -0.334,-0.3936 -0.709,-0.7246 -1.0898,-1.0703 l -0.8359,0.123 -0.7637,-0.8633 0,1.0684 0.6543,0.4951 0.4355,0.4932 0.582,-0.6582 c 0.1465,0.2744 0.291,0.5488 0.4365,0.8232 l 0,0.8223 -0.6553,0.7402 -1.1992,0.8232 -0.9082,0.9063 -0.582,-0.6602 0.291,-0.7402 -0.5811,-0.6582 -0.9814,-2.0977 -0.8359,-0.9453 -0.2188,0.2461 0.3281,1.1934 0.6172,0.6992 c 0.3525,1.0176 0.7012,1.9902 1.1641,2.9629 0.7178,0 1.3945,-0.0762 2.1074,-0.166 l 0,0.5762 -0.8721,2.1392 -0.7998,0.9043 -0.6543,1.4004 c 0,0.7676 0,1.5352 0,2.3027 l 0.2188,0.9063 -0.3633,0.4102 -0.8008,0.4941 -0.8359,0.6992 0.6914,0.7813 -0.9453,0.8242 0.1816,0.5332 -1.418,1.6055 -0.9443,0 -0.7998,0.4941 -0.5098,0 0,-0.6582 -0.2168,-1.3184 c -0.2813,-0.8262 -0.5742,-1.6465 -0.8721,-2.4668 0,-0.6055 0.0361,-1.2051 0.0723,-1.8105 l 0.3643,-0.8223 -0.5098,-0.9883 0.0371,-1.3574 -0.6914,-0.7813 0.3457,-1.1309 -0.5625,-0.6382 -0.9824,0 -0.3271,-0.3701 -0.9814,0.6177 -0.3994,-0.4536 -0.9092,0.7817 c -0.6172,-0.6997 -1.2354,-1.3989 -1.8535,-2.0981 l -0.7266,-1.7285 0.6543,-0.9863 -0.3633,-0.4111 0.7988,-1.8936 c 0.6563,-0.8164 1.3418,-1.5996 2.0352,-2.3857 l 1.2363,-0.3291 1.3809,-0.1641 0.9453,0.2471 1.3447,1.3564 0.4727,-0.5342 0.6533,-0.082 1.2363,0.4111 0.9453,0 0.6543,-0.5762 0.291,-0.4111 -0.6553,-0.4111 -1.0908,-0.082 c -0.3027,-0.4199 -0.584,-0.8613 -0.9434,-1.2344 l -0.3643,0.1641 -0.1455,1.0703 -0.6543,-0.7402 -0.1445,-0.8242 -0.7266,-0.5742 -0.292,0 0.7275,0.8223 -0.291,0.7402 -0.5811,0.1641 0.3633,-0.7402 -0.6553,-0.3281 -0.5801,-0.6582 -1.0918,0.2461 -0.1445,0.3281 -0.6543,0.4121 -0.3633,0.9053 -0.9082,0.4521 -0.4004,-0.4521 -0.4355,0 0,-1.4814 0.9453,-0.4941 0.7266,0 -0.1465,-0.5752 -0.5801,-0.5762 0.9805,-0.2061 0.5449,-0.6162 0.4355,-0.7412 0.8008,0 -0.2188,-0.5752 0.5098,-0.3291 0,0.6582 1.0898,0.2461 1.0898,-0.9043 0.0732,-0.4121 0.9443,-0.6577 c -0.3418,0.0425 -0.6836,0.0737 -1.0176,0.1646 l 0,-0.7411 0.3633,-0.8228 -0.3633,0 -0.7984,0.7402 -0.2188,0.4116 0.2188,0.5767 -0.3643,0.9863 -0.5811,-0.3291 -0.5078,-0.5752 -0.8008,0.5752 -0.291,-1.3159 1.3809,-0.9048 0,-0.4941 0.873,-0.5757 1.3809,-0.3296 0.9453,0.3296 1.7441,0.3291 -0.4355,0.4932 -0.9453,0 0.9453,0.9873 0.7266,-0.8223 0.2207,-0.3618 c 0,0 2.7871,2.498 4.3799,5.2305 1.5928,2.7334 2.3408,5.9551 2.3408,6.6094 z" />
          </g>
        </g>
        <g
           id="g4146">
          <g
             id="g4150">
            <path
               id="path4152"
               d="m 26.0703,9.2363 -0.0732,0.4932 0.5098,0.3291 0.8711,-0.5757 -0.4355,-0.4937 -0.582,0.3296 -0.29,-0.0825" />
          </g>
        </g>
        <g
           id="g4154">
          <g
             id="g4158">
            <path
               id="path4160"
               d="m 26.8701,5.8633 -1.8906,-0.7407 -2.1797,0.2466 -2.6904,0.7402 -0.5088,0.4941 1.6719,1.1514 0,0.6582 -0.6543,0.6582 0.873,1.729 0.5801,-0.3301 0.7285,-1.1514 c 1.123,-0.3472 2.1299,-0.7407 3.1973,-1.2344 l 0.873,-2.2212" />
          </g>
        </g>
        <g
           id="g4162">
          <g
             id="g4166">
            <path
               id="path4168"
               d="m 28.833,12.7749 -0.291,-0.7412 -0.5098,0.165 0.1465,0.9043 0.6543,-0.3281" />
          </g>
        </g>
        <g
           id="g4170">
          <g
             id="g4174">
            <path
               id="path4176"
               d="m 29.123,12.6089 -0.1455,0.9883 0.7998,-0.165 0.5811,-0.5752 -0.5088,-0.4941 C 29.6787,11.9078 29.4824,11.483 29.2685,11.0465 l -0.4355,0 0,0.4932 0.29,0.3291 0,0.7402" />
          </g>
        </g>
        <g
           id="g4178">
          <g
             id="g4182">
            <path
               id="path4184"
               d="m 18.3652,28.2422 -0.582,-1.1523 -1.0903,-0.2466 -0.5815,-1.5625 -1.4536,0.1641 -1.2354,-0.9043 -1.3091,1.1514 0,0.1816 c -0.396,-0.1143 -0.8828,-0.1299 -1.2354,-0.3467 l -0.291,-0.8223 0,-0.9053 -0.8721,0.082 c 0.0728,-0.5762 0.145,-1.1514 0.2183,-1.7275 l -0.5093,0 -0.5083,0.6582 -0.5093,0.2461 -0.7271,-0.4102 -0.0728,-0.9053 0.1455,-0.9873 1.0908,-0.8223 0.8721,0 0.145,-0.4941 1.0903,0.2461 0.7998,0.9883 0.1455,-1.6465 1.3813,-1.1514 0.5088,-1.2344 1.0176,-0.4111 0.5815,-0.8223 1.3081,-0.248 0.6548,-0.9863 c -0.6543,0 -1.3086,0 -1.9629,0 l 1.2358,-0.5762 0.8716,0 1.2363,-0.4121 0.1455,-0.4922 -0.4365,-0.4121 -0.5088,-0.165 0.1455,-0.4932 -0.3633,-0.7402 -0.8726,0.3281 0.1455,-0.6577 -1.0176,-0.5762 -0.7993,1.3979 0.0723,0.4941 -0.7993,0.3301 -0.5093,1.0693 -0.2178,-0.9873 -1.3813,-0.5762 -0.2183,-0.7402 1.8174,-1.0703 0.7998,-0.7402 0.0728,-0.9048 -0.436,-0.2471 -0.5815,-0.0825 -0.3633,0.9053 c 0,0 -0.6079,0.1191 -0.7642,0.1577 -1.9961,1.8394 -6.0293,5.8101 -6.9663,13.3062 0.0371,0.1738 0.6792,1.1816 0.6792,1.1816 l 1.5264,0.9043 1.5264,0.4121 0.6548,0.8232 1.0171,0.7402 0.5815,-0.082 0.436,0.1963 0,0.1328 -0.5811,1.563 -0.4365,0.6582 0.1455,0.3301 -0.3633,1.2324 1.3086,2.3867 1.3081,1.1523 0.582,0.8223 -0.0732,1.7285 0.4365,0.9863 -0.4365,1.8926 c 0,0 -0.0342,-0.0117 0.0215,0.1777 0.0562,0.1895 2.3291,1.4512 2.4736,1.3438 0.144,-0.1094 0.2671,-0.2051 0.2671,-0.2051 l -0.145,-0.4102 0.5811,-0.5762 0.2183,-0.5762 0.9453,-0.3301 0.7266,-1.8105 -0.2178,-0.4922 0.5078,-0.7402 1.0908,-0.248 0.582,-1.3164 -0.1455,-1.6445 0.8721,-1.2344 0.1455,-1.2344 C 20.7331,29.4607 19.5495,28.8513 18.365,28.242" />
          </g>
        </g>
        <g
           id="g4186">
          <g
             id="g4190">
            <path
               id="path4192"
               d="m 16.7656,9.5649 0.7266,0.4937 0.582,0 0,-0.5757 -0.7266,-0.3291 -0.582,0.4111" />
          </g>
        </g>
        <g
           id="g4194">
          <g
             id="g4198">
            <path
               id="path4200"
               d="m 14.876,8.9072 -0.3638,0.9048 0.7271,0 0.3638,-0.8228 C 15.9166,8.7675 16.2286,8.5444 16.5479,8.331 l 0.7271,0.2471 c 0.4844,0.3291 0.9688,0.6582 1.4536,0.9868 L 19.4561,8.9072 18.6558,8.5781 18.292,7.8374 16.9111,7.6728 16.8383,7.2612 16.184,7.4262 15.8936,8.002 15.5298,7.2613 l -0.145,0.3291 0.0728,0.8228 -0.5816,0.494" />
          </g>
        </g>
        <g
           id="g4202">
          <g
             id="g4204"
             style="opacity:0.75">
            <path
               d=""
               id="path4206" />
          </g>
          <g
             id="g4208">
            <path
               d=""
               id="path4210" />
          </g>
        </g>
        <g
           id="g4212">
          <g
             id="g4214"
             style="opacity:0.75">
            <path
               d=""
               id="path4216" />
          </g>
          <g
             id="g4218">
            <path
               d=""
               id="path4220" />
          </g>
        </g>
        <g
           id="g4222">
          <g
             id="g4226">
            <path
               id="path4228"
               d="M 17.4922,6.8496 17.856,6.521 18.5831,6.3564 c 0.498,-0.2422 0.998,-0.4053 1.5264,-0.5762 l -0.29,-0.4937 -0.9385,0.1348 -0.4434,0.4419 -0.731,0.106 -0.6499,0.3052 -0.3159,0.1528 -0.1929,0.2583 0.9443,0.1641" />
          </g>
        </g>
        <g
           id="g4230">
          <g
             id="g4234">
            <path
               id="path4236"
               d="m 18.7285,14.6665 0.4365,-0.6582 -0.6548,-0.4932 0.2183,1.1514" />
          </g>
        </g>
      </g>
      <g
         transform="matrix(0.982371,0,0,0.982371,-0.08095179,0.030883)"
         style="color:#000000;fill:url(#radialGradient1460);fill-opacity:1;fill-rule:nonzero;stroke:none;stroke-width:1.01794541;marker:none;visibility:visible;display:inline;overflow:visible"
         id="g3216">
        <g
           style="color:#000000;fill:url(#radialGradient1462);marker:none;visibility:visible;display:inline;overflow:visible"
           id="g3218">
          <g
             style="color:#000000;fill:url(#radialGradient1466);marker:none;visibility:visible;display:inline;overflow:visible"
             id="g3222">
            <path
               style="color:#000000;fill:url(#radialGradient1468);marker:none;visibility:visible;display:inline;overflow:visible"
               id="path3224"
               d="m 44.0713,20.7144 c 0,0.2627 0,0 0,0 l -0.5449,0.6172 c -0.334,-0.3936 -0.709,-0.7246 -1.0898,-1.0703 l -0.8359,0.123 -0.7637,-0.8633 0,1.0684 0.6543,0.4951 0.4355,0.4932 0.582,-0.6582 c 0.1465,0.2744 0.291,0.5488 0.4365,0.8232 l 0,0.8223 -0.6553,0.7402 -1.1992,0.8232 -0.9082,0.9063 -0.582,-0.6602 0.291,-0.7402 -0.5811,-0.6582 -0.9814,-2.0977 -0.8359,-0.9453 -0.2188,0.2461 0.3281,1.1934 0.6172,0.6992 c 0.3525,1.0176 0.7012,1.9902 1.1641,2.9629 0.7178,0 1.3945,-0.0762 2.1074,-0.166 l 0,0.5762 -0.8721,2.1392 -0.7998,0.9043 -0.6543,1.4004 c 0,0.7676 0,1.5352 0,2.3027 l 0.2188,0.9063 -0.3633,0.4102 -0.8008,0.4941 -0.8359,0.6992 0.6914,0.7813 -0.9453,0.8242 0.1816,0.5332 -1.418,1.6055 -0.9443,0 -0.7998,0.4941 -0.5098,0 0,-0.6582 -0.2168,-1.3184 c -0.2813,-0.8262 -0.5742,-1.6465 -0.8721,-2.4668 0,-0.6055 0.0361,-1.2051 0.0723,-1.8105 l 0.3643,-0.8223 -0.5098,-0.9883 0.0371,-1.3574 -0.6914,-0.7813 0.3457,-1.1309 -0.5625,-0.6382 -0.9824,0 -0.3271,-0.3701 -0.9814,0.6177 -0.3994,-0.4536 -0.9092,0.7817 c -0.6172,-0.6997 -1.2354,-1.3989 -1.8535,-2.0981 l -0.7266,-1.7285 0.6543,-0.9863 -0.3633,-0.4111 0.7988,-1.8936 c 0.6563,-0.8164 1.3418,-1.5996 2.0352,-2.3857 l 1.2363,-0.3291 1.3809,-0.1641 0.9453,0.2471 1.3447,1.3564 0.4727,-0.5342 0.6533,-0.082 1.2363,0.4111 0.9453,0 0.6543,-0.5762 0.291,-0.4111 -0.6553,-0.4111 -1.0908,-0.082 c -0.3027,-0.4199 -0.584,-0.8613 -0.9434,-1.2344 l -0.3643,0.1641 -0.1455,1.0703 -0.6543,-0.7402 -0.1445,-0.8242 -0.7266,-0.5742 -0.292,0 0.7275,0.8223 -0.291,0.7402 -0.5811,0.1641 0.3633,-0.7402 -0.6553,-0.3281 -0.5801,-0.6582 -1.0918,0.2461 -0.1445,0.3281 -0.6543,0.4121 -0.3633,0.9053 -0.9082,0.4521 -0.4004,-0.4521 -0.4355,0 0,-1.4814 0.9453,-0.4941 0.7266,0 -0.1465,-0.5752 -0.5801,-0.5762 0.9805,-0.2061 0.5449,-0.6162 0.4355,-0.7412 0.8008,0 -0.2188,-0.5752 0.5098,-0.3291 0,0.6582 1.0898,0.2461 1.0898,-0.9043 0.0732,-0.4121 0.9443,-0.6577 c -0.3418,0.0425 -0.6836,0.0737 -1.0176,0.1646 l 0,-0.7411 0.3633,-0.8228 -0.3633,0 -0.7984,0.7402 -0.2188,0.4116 0.2188,0.5767 -0.3643,0.9863 -0.5811,-0.3291 -0.5078,-0.5752 -0.8008,0.5752 -0.291,-1.3159 1.3809,-0.9048 0,-0.4941 0.873,-0.5757 1.3809,-0.3296 0.9453,0.3296 1.7441,0.3291 -0.4355,0.4932 -0.9453,0 0.9453,0.9873 0.7266,-0.8223 0.2207,-0.3618 c 0,0 2.7871,2.498 4.3799,5.2305 1.5928,2.7334 2.3408,5.9551 2.3408,6.6094 z" />
          </g>
        </g>
        <g
           style="color:#000000;fill:url(#radialGradient1470);marker:none;visibility:visible;display:inline;overflow:visible"
           id="g3226">
          <g
             style="color:#000000;fill:url(#radialGradient1474);marker:none;visibility:visible;display:inline;overflow:visible"
             id="g3230">
            <path
               style="color:#000000;fill:url(#radialGradient1476);marker:none;visibility:visible;display:inline;overflow:visible"
               id="path3232"
               d="m 26.0703,9.2363 -0.0732,0.4932 0.5098,0.3291 0.8711,-0.5757 -0.4355,-0.4937 -0.582,0.3296 -0.29,-0.0825" />
          </g>
        </g>
        <g
           style="color:#000000;fill:url(#radialGradient1478);marker:none;visibility:visible;display:inline;overflow:visible"
           id="g3234">
          <g
             style="color:#000000;fill:url(#radialGradient1482);marker:none;visibility:visible;display:inline;overflow:visible"
             id="g3238">
            <path
               style="color:#000000;fill:url(#radialGradient1484);marker:none;visibility:visible;display:inline;overflow:visible"
               id="path3240"
               d="m 26.8701,5.8633 -1.8906,-0.7407 -2.1797,0.2466 -2.6904,0.7402 -0.5088,0.4941 1.6719,1.1514 0,0.6582 -0.6543,0.6582 0.873,1.729 0.5801,-0.3301 0.7285,-1.1514 c 1.123,-0.3472 2.1299,-0.7407 3.1973,-1.2344 l 0.873,-2.2212" />
          </g>
        </g>
        <g
           style="color:#000000;fill:url(#radialGradient1486);marker:none;visibility:visible;display:inline;overflow:visible"
           id="g3242">
          <g
             style="color:#000000;fill:url(#radialGradient1490);marker:none;visibility:visible;display:inline;overflow:visible"
             id="g3246">
            <path
               style="color:#000000;fill:url(#radialGradient1492);marker:none;visibility:visible;display:inline;overflow:visible"
               id="path3248"
               d="m 28.833,12.7749 -0.291,-0.7412 -0.5098,0.165 0.1465,0.9043 0.6543,-0.3281" />
          </g>
        </g>
        <g
           style="color:#000000;fill:url(#radialGradient1494);marker:none;visibility:visible;display:inline;overflow:visible"
           id="g3250">
          <g
             style="color:#000000;fill:url(#radialGradient1498);marker:none;visibility:visible;display:inline;overflow:visible"
             id="g3254">
            <path
               style="color:#000000;fill:url(#radialGradient1500);marker:none;visibility:visible;display:inline;overflow:visible"
               id="path3256"
               d="m 29.123,12.6089 -0.1455,0.9883 0.7998,-0.165 0.5811,-0.5752 -0.5088,-0.4941 C 29.6787,11.9078 29.4824,11.483 29.2685,11.0465 l -0.4355,0 0,0.4932 0.29,0.3291 0,0.7402" />
          </g>
        </g>
        <g
           style="color:#000000;fill:url(#radialGradient1502);marker:none;visibility:visible;display:inline;overflow:visible"
           id="g3258">
          <g
             style="color:#000000;fill:url(#radialGradient1506);marker:none;visibility:visible;display:inline;overflow:visible"
             id="g3262">
            <path
               style="color:#000000;fill:url(#radialGradient1508);marker:none;visibility:visible;display:inline;overflow:visible"
               id="path3264"
               d="m 18.3652,28.2422 -0.582,-1.1523 -1.0903,-0.2466 -0.5815,-1.5625 -1.4536,0.1641 -1.2354,-0.9043 -1.3091,1.1514 0,0.1816 c -0.396,-0.1143 -0.8828,-0.1299 -1.2354,-0.3467 l -0.291,-0.8223 0,-0.9053 -0.8721,0.082 c 0.0728,-0.5762 0.145,-1.1514 0.2183,-1.7275 l -0.5093,0 -0.5083,0.6582 -0.5093,0.2461 -0.7271,-0.4102 -0.0728,-0.9053 0.1455,-0.9873 1.0908,-0.8223 0.8721,0 0.145,-0.4941 1.0903,0.2461 0.7998,0.9883 0.1455,-1.6465 1.3813,-1.1514 0.5088,-1.2344 1.0176,-0.4111 0.5815,-0.8223 1.3081,-0.248 0.6548,-0.9863 c -0.6543,0 -1.3086,0 -1.9629,0 l 1.2358,-0.5762 0.8716,0 1.2363,-0.4121 0.1455,-0.4922 -0.4365,-0.4121 -0.5088,-0.165 0.1455,-0.4932 -0.3633,-0.7402 -0.8726,0.3281 0.1455,-0.6577 -1.0176,-0.5762 -0.7993,1.3979 0.0723,0.4941 -0.7993,0.3301 -0.5093,1.0693 -0.2178,-0.9873 -1.3813,-0.5762 -0.2183,-0.7402 1.8174,-1.0703 0.7998,-0.7402 0.0728,-0.9048 -0.436,-0.2471 -0.5815,-0.0825 -0.3633,0.9053 c 0,0 -0.6079,0.1191 -0.7642,0.1577 -1.9961,1.8394 -6.0293,5.8101 -6.9663,13.3062 0.0371,0.1738 0.6792,1.1816 0.6792,1.1816 l 1.5264,0.9043 1.5264,0.4121 0.6548,0.8232 1.0171,0.7402 0.5815,-0.082 0.436,0.1963 0,0.1328 -0.5811,1.563 -0.4365,0.6582 0.1455,0.3301 -0.3633,1.2324 1.3086,2.3867 1.3081,1.1523 0.582,0.8223 -0.0732,1.7285 0.4365,0.9863 -0.4365,1.8926 c 0,0 -0.0342,-0.0117 0.0215,0.1777 0.0562,0.1895 2.3291,1.4512 2.4736,1.3438 0.144,-0.1094 0.2671,-0.2051 0.2671,-0.2051 l -0.145,-0.4102 0.5811,-0.5762 0.2183,-0.5762 0.9453,-0.3301 0.7266,-1.8105 -0.2178,-0.4922 0.5078,-0.7402 1.0908,-0.248 0.582,-1.3164 -0.1455,-1.6445 0.8721,-1.2344 0.1455,-1.2344 C 20.7331,29.4607 19.5495,28.8513 18.365,28.242" />
          </g>
        </g>
        <g
           style="color:#000000;fill:url(#radialGradient1510);marker:none;visibility:visible;display:inline;overflow:visible"
           id="g3266">
          <g
             style="color:#000000;fill:url(#radialGradient1514);marker:none;visibility:visible;display:inline;overflow:visible"
             id="g3270">
            <path
               style="color:#000000;fill:url(#radialGradient1516);marker:none;visibility:visible;display:inline;overflow:visible"
               id="path3272"
               d="m 16.7656,9.5649 0.7266,0.4937 0.582,0 0,-0.5757 -0.7266,-0.3291 -0.582,0.4111" />
          </g>
        </g>
        <g
           style="color:#000000;fill:url(#radialGradient1518);marker:none;visibility:visible;display:inline;overflow:visible"
           id="g3274">
          <g
             style="color:#000000;fill:url(#radialGradient1522);marker:none;visibility:visible;display:inline;overflow:visible"
             id="g3278">
            <path
               style="color:#000000;fill:url(#radialGradient1524);marker:none;visibility:visible;display:inline;overflow:visible"
               id="path3280"
               d="m 14.876,8.9072 -0.3638,0.9048 0.7271,0 0.3638,-0.8228 C 15.9166,8.7675 16.2286,8.5444 16.5479,8.331 l 0.7271,0.2471 c 0.4844,0.3291 0.9688,0.6582 1.4536,0.9868 L 19.4561,8.9072 18.6558,8.5781 18.292,7.8374 16.9111,7.6728 16.8383,7.2612 16.184,7.4262 15.8936,8.002 15.5298,7.2613 l -0.145,0.3291 0.0728,0.8228 -0.5816,0.494" />
          </g>
        </g>
        <g
           style="color:#000000;fill:url(#radialGradient1526);marker:none;visibility:visible;display:inline;overflow:visible"
           id="g3282">
          <g
             id="g3284"
             style="opacity:0.75;color:#000000;fill:url(#radialGradient1528);marker:none;visibility:visible;display:inline;overflow:visible">
            <path
               id="path3286"
               style="color:#000000;fill:url(#radialGradient1530);marker:none;visibility:visible;display:inline;overflow:visible"
               d="" />
          </g>
          <g
             style="color:#000000;fill:url(#radialGradient1532);marker:none;visibility:visible;display:inline;overflow:visible"
             id="g3288">
            <path
               style="color:#000000;fill:url(#radialGradient1534);marker:none;visibility:visible;display:inline;overflow:visible"
               id="path3290"
               d="" />
          </g>
        </g>
        <g
           style="color:#000000;fill:url(#radialGradient1536);marker:none;visibility:visible;display:inline;overflow:visible"
           id="g3292">
          <g
             id="g3294"
             style="opacity:0.75;color:#000000;fill:url(#radialGradient1538);marker:none;visibility:visible;display:inline;overflow:visible">
            <path
               id="path3296"
               style="color:#000000;fill:url(#radialGradient1540);marker:none;visibility:visible;display:inline;overflow:visible"
               d="" />
          </g>
          <g
             style="color:#000000;fill:url(#radialGradient1542);marker:none;visibility:visible;display:inline;overflow:visible"
             id="g3298">
            <path
               style="color:#000000;fill:url(#radialGradient1544);marker:none;visibility:visible;display:inline;overflow:visible"
               id="path3300"
               d="" />
          </g>
        </g>
        <g
           style="color:#000000;fill:url(#radialGradient1546);marker:none;visibility:visible;display:inline;overflow:visible"
           id="g3302">
          <g
             style="color:#000000;fill:url(#radialGradient1550);marker:none;visibility:visible;display:inline;overflow:visible"
             id="g3306">
            <path
               style="color:#000000;fill:url(#radialGradient1552);marker:none;visibility:visible;display:inline;overflow:visible"
               id="path3308"
               d="M 17.4922,6.8496 17.856,6.521 18.5831,6.3564 c 0.498,-0.2422 0.998,-0.4053 1.5264,-0.5762 l -0.29,-0.4937 -0.9385,0.1348 -0.4434,0.4419 -0.731,0.106 -0.6499,0.3052 -0.3159,0.1528 -0.1929,0.2583 0.9443,0.1641" />
          </g>
        </g>
        <g
           style="color:#000000;fill:url(#radialGradient1554);marker:none;visibility:visible;display:inline;overflow:visible"
           id="g3310">
          <g
             style="color:#000000;fill:url(#radialGradient1558);marker:none;visibility:visible;display:inline;overflow:visible"
             id="g3314">
            <path
               style="color:#000000;fill:url(#radialGradient4756);marker:none;visibility:visible;display:inline;overflow:visible"
               id="path3316"
               d="m 18.7285,14.6665 0.4365,-0.6582 -0.6548,-0.4932 0.2183,1.1514" />
          </g>
        </g>
      </g>
      <path
         id="path4122"
         d="m 42.975093,23.485534 c 0,10.16582 -8.241178,18.406906 -18.4056,18.406906 -10.165354,0 -18.4060669,-8.241179 -18.4060669,-18.406906 0,-10.165354 8.2407129,-18.4056 18.4060669,-18.4056 10.164422,0 18.4056,8.240246 18.4056,18.4056 l 0,0 z"
         style="fill:none;stroke:url(#radialGradient4132);stroke-miterlimit:4;stroke-opacity:1" />
    </g>
  </g>
</svg>
