<?xml version="1.0" encoding="UTF-8" standalone="no"?>
<!-- Created with Inkscape (http://www.inkscape.org/) -->

<svg
   xmlns:dc="http://purl.org/dc/elements/1.1/"
   xmlns:cc="http://creativecommons.org/ns#"
   xmlns:rdf="http://www.w3.org/1999/02/22-rdf-syntax-ns#"
   xmlns:svg="http://www.w3.org/2000/svg"
   xmlns="http://www.w3.org/2000/svg"
   xmlns:sodipodi="http://sodipodi.sourceforge.net/DTD/sodipodi-0.dtd"
   xmlns:inkscape="http://www.inkscape.org/namespaces/inkscape"
   width="30.816303"
   height="40.014301"
   id="svg2"
   version="1.1"
   inkscape:version="0.47 r22583"
   sodipodi:docname="pen.svg">
  <defs
     id="defs4">
    <inkscape:perspective
       sodipodi:type="inkscape:persp3d"
       inkscape:vp_x="0 : 526.18109 : 1"
       inkscape:vp_y="0 : 1000 : 0"
       inkscape:vp_z="744.09448 : 526.18109 : 1"
       inkscape:persp3d-origin="372.04724 : 350.78739 : 1"
       id="perspective10" />
    <inkscape:perspective
       id="perspective2824"
       inkscape:persp3d-origin="0.5 : 0.33333333 : 1"
       inkscape:vp_z="1 : 0.5 : 1"
       inkscape:vp_y="0 : 1000 : 0"
       inkscape:vp_x="0 : 0.5 : 1"
       sodipodi:type="inkscape:persp3d" />
    <inkscape:perspective
       id="perspective2838"
       inkscape:persp3d-origin="0.5 : 0.33333333 : 1"
       inkscape:vp_z="1 : 0.5 : 1"
       inkscape:vp_y="0 : 1000 : 0"
       inkscape:vp_x="0 : 0.5 : 1"
       sodipodi:type="inkscape:persp3d" />
  </defs>
  <sodipodi:namedview
     id="base"
     pagecolor="#ffffff"
     bordercolor="#666666"
     borderopacity="1.0"
     inkscape:pageopacity="0.0"
     inkscape:pageshadow="2"
     inkscape:zoom="5.6568542"
     inkscape:cx="19.73653"
     inkscape:cy="19.86234"
     inkscape:document-units="px"
     inkscape:current-layer="layer1"
     showgrid="false"
     inkscape:window-width="1024"
     inkscape:window-height="526"
     inkscape:window-x="0"
     inkscape:window-y="25"
     inkscape:window-maximized="1" />
  <metadata
     id="metadata7">
    <rdf:RDF>
      <cc:Work
         rdf:about="">
        <dc:format>image/svg+xml</dc:format>
        <dc:type
           rdf:resource="http://purl.org/dc/dcmitype/StillImage" />
        <dc:title></dc:title>
      </cc:Work>
    </rdf:RDF>
  </metadata>
  <g
     inkscape:label="Layer 1"
     inkscape:groupmode="layer"
     id="layer1"
     transform="translate(-195.9435,-432.35498)">
    <path
       style="fill:#666666;stroke:#000000;stroke-width:0.11080332000000000px;stroke-linecap:butt;stroke-linejoin:miter;stroke-opacity:1"
       d="m 196.006,472.30678 4.74871,-7.59794 5.54017,-0.63317 c 1.10008,-1.42931 3.77989,-5.07024 3.00752,-3.87811 0.55401,0.68592 -0.47487,-0.52764 -2.84923,0.15829 -0.94974,0.0528 -1.97863,0.65954 -2.77008,0.71231 0,0 2.25016,-1.58964 3.40324,-1.89949 3.06452,-0.82348 3.16581,0.0791 3.16581,0.0791 l 6.01504,-8.3894 c -1.89949,0.10553 -3.3241,-0.50125 -4.74872,-1.5829 1.8603,0.46999 3.92883,0.83088 6.09419,0.31658 l 4.4717,-6.45034 c 1.62248,-2.12373 2.84923,-4.16831 3.91769,-6.60863 -2.55903,0.52764 -2.42712,-0.36934 -3.64068,-0.55401 1.13442,-0.0264 2.18969,0.26381 3.40325,-0.0792 0.6049,-1.02436 1.21594,-2.04627 0.79145,-3.48239 -2.84923,0.47487 -4.98615,1.58291 -7.59794,2.84923 l 0.15829,2.61179 -0.71231,-1.89948 c -2.05778,1.18718 -3.79897,2.61179 -5.22359,4.27384 l -1.10803,4.11555 0.31658,-3.40324 c -3.93088,4.56404 -7.2286,9.36552 -9.89315,14.40443 0.21105,1.55652 -0.13191,3.27134 -0.79145,4.43213 l 0.23743,-3.79897 -2.4535,4.27384 0.15829,3.95727 -3.3241,6.01503 c 0.21105,0.68593 -0.21105,1.37185 -0.31658,2.05778 z"
       id="path2846"
       sodipodi:nodetypes="ccccccscccccccccccccccccccccc" />
    <path
       style="fill:#ffffff;stroke:#000000;stroke-width:0.11080332px;stroke-linecap:butt;stroke-linejoin:miter;stroke-opacity:1"
       d="m 225.69506,433.67033 c -11.52882,8.25748 -17.84366,20.40666 -24.78206,30.72193 l -2.79266,4.49335 -0.17809,-1.38351 c 3.8764,-8.60747 9.91252,-16.50712 15.96017,-24.57178 3.37124,-3.64631 7.19019,-7.06875 11.79264,-9.25999 z"
       id="path2848"
       sodipodi:nodetypes="cccccc" />
  </g>
</svg>
